<mxfile host="app.diagrams.net" modified="2022-11-24T07:00:12.834Z" agent="5.0 (Macintosh; Intel Mac OS X 10_15_7) AppleWebKit/537.36 (KHTML, like Gecko) Chrome/107.0.0.0 Safari/537.36" etag="2PqjSDTzOwHfQGCeDgQj" version="20.5.1" type="github">
  <diagram id="u0AGarJ8tSK5Z7didW5S" name="第 1 页">
    <mxGraphModel dx="1298" dy="721" grid="1" gridSize="10" guides="1" tooltips="1" connect="1" arrows="1" fold="1" page="1" pageScale="1" pageWidth="850" pageHeight="1100" math="0" shadow="0">
      <root>
        <mxCell id="0" />
        <mxCell id="1" parent="0" />
        <mxCell id="Fv7qvDT0qrcTuZXLy1bg-1" value="APP" style="rounded=0;whiteSpace=wrap;html=1;" vertex="1" parent="1">
          <mxGeometry x="125" y="90" width="120" height="60" as="geometry" />
        </mxCell>
        <mxCell id="Fv7qvDT0qrcTuZXLy1bg-2" value="IO板" style="rounded=0;whiteSpace=wrap;html=1;" vertex="1" parent="1">
          <mxGeometry x="605" y="90" width="120" height="60" as="geometry" />
        </mxCell>
      </root>
    </mxGraphModel>
  </diagram>
</mxfile>
